<svg width="19" height="24" viewBox="0 0 19 24" fill="none" xmlns="http://www.w3.org/2000/svg">
<path d="M1.4869 7.41273C1.58224 4.98987 1.62991 3.77843 2.43414 2.9732C3.23837 2.16796 4.438 2.11925 6.83725 2.02184C8.72495 1.94519 10.308 1.94519 12.1957 2.02184C14.595 2.11925 15.7946 2.16796 16.5989 2.9732C17.4031 3.77844 17.4508 4.98987 17.5461 7.41274C17.6741 10.6666 17.6741 13.3943 17.5461 16.6482C17.4508 19.071 17.4031 20.2825 16.5989 21.0877C15.7946 21.893 14.595 21.9417 12.1957 22.0391C10.308 22.1157 8.72495 22.1157 6.83727 22.0391C4.438 21.9417 3.23837 21.893 2.43414 21.0877C1.62991 20.2825 1.58224 19.071 1.4869 16.6482C1.35886 13.3943 1.35886 10.6666 1.4869 7.41273Z" stroke="white" stroke-width="1.94045"/>
<path d="M17.2773 7.66431H1.75366" stroke="white" stroke-width="1.94045"/>
<circle cx="11.9446" cy="12.3956" r="1.335" fill="white"/>
<circle cx="11.9446" cy="16.7608" r="1.33501" fill="white"/>
<circle cx="7.09933" cy="12.3967" r="1.33273" fill="white"/>
<circle cx="7.09393" cy="16.7614" r="1.33587" fill="white"/>
</svg>
