<svg width="32" height="32" viewBox="0 0 32 32" fill="none" xmlns="http://www.w3.org/2000/svg">
<path d="M7.4869 10.4127C7.58224 7.98987 7.62991 6.77843 8.43414 5.9732C9.23837 5.16796 10.438 5.11925 12.8373 5.02184C14.725 4.94519 16.308 4.94519 18.1957 5.02184C20.595 5.11925 21.7946 5.16796 22.5989 5.9732C23.4031 6.77844 23.4508 7.98987 23.5461 10.4127C23.6741 13.6666 23.6741 16.3943 23.5461 19.6482C23.4508 22.071 23.4031 23.2825 22.5989 24.0877C21.7946 24.893 20.595 24.9417 18.1957 25.0391C16.308 25.1157 14.725 25.1157 12.8373 25.0391C10.438 24.9417 9.23837 24.893 8.43414 24.0877C7.62991 23.2825 7.58224 22.071 7.4869 19.6482C7.35886 16.3943 7.35886 13.6666 7.4869 10.4127Z" stroke="white" stroke-width="1.94045"/>
<path d="M23.2773 10.6643H7.75366" stroke="white" stroke-width="1.94045"/>
<circle cx="17.9446" cy="15.3956" r="1.335" fill="white"/>
<circle cx="17.9446" cy="19.7608" r="1.33501" fill="white"/>
<circle cx="13.0993" cy="15.3967" r="1.33273" fill="white"/>
<circle cx="13.0939" cy="19.7614" r="1.33587" fill="white"/>
</svg>
