<svg width="14" height="16" viewBox="0 0 14 16" fill="none" xmlns="http://www.w3.org/2000/svg">
<path d="M1.62543 5.02111C1.69083 3.35932 1.72352 2.52842 2.27513 1.97612C2.82674 1.42383 3.64954 1.39042 5.29514 1.32361C6.58988 1.27104 7.67567 1.27104 8.97042 1.32361C10.616 1.39042 11.4388 1.42383 11.9904 1.97613C12.542 2.52843 12.5747 3.35932 12.6401 5.02112C12.7279 7.25291 12.7279 9.12373 12.6401 11.3555C12.5747 13.0173 12.542 13.8482 11.9904 14.4005C11.4388 14.9528 10.616 14.9862 8.97041 15.053C7.67567 15.1056 6.58988 15.1056 5.29515 15.053C3.64954 14.9862 2.82674 14.9528 2.27513 14.4005C1.72352 13.8482 1.69083 13.0173 1.62543 11.3555C1.53761 9.12373 1.53761 7.2529 1.62543 5.02111Z" stroke="white" stroke-width="1.33092"/>
<path d="M12.4578 5.19336H1.81042" stroke="white" stroke-width="1.33092"/>
<circle cx="8.80579" cy="8.43909" r="0.915654" fill="white"/>
<circle cx="8.80628" cy="11.4332" r="0.91566" fill="white"/>
<circle cx="5.47855" cy="8.44046" r="0.914095" fill="white"/>
<circle cx="5.47704" cy="11.4346" r="0.916247" fill="white"/>
</svg>
