<svg width="91" height="13" viewBox="0 0 91 13" fill="none" xmlns="http://www.w3.org/2000/svg">
<path d="M15.6581 0.194458C13.9628 0.195388 12.2811 0.500043 10.6909 1.09431C10.6432 1.11644 10.6035 1.15299 10.5772 1.19893C10.5509 1.24486 10.5394 1.29791 10.5441 1.35077L10.811 3.15048C10.8191 3.19003 10.8413 3.22521 10.8732 3.24946C10.8912 3.25824 10.911 3.2628 10.931 3.2628C10.951 3.2628 10.9708 3.25824 10.9888 3.24946C11.7208 3.03784 12.4629 2.86365 13.2123 2.72755C14.991 2.4216 15.9782 2.50259 16.4763 2.97951C16.6204 3.13276 16.724 3.32025 16.7776 3.52469C16.8313 3.72913 16.8331 3.94395 16.7831 4.14932L16.7386 4.49126C16.7386 4.49126 14.5819 4.78372 13.1811 5.04917C12.1301 5.18895 11.1163 5.53594 10.1973 6.07051C8.73871 7.03335 8.37851 8.91405 8.65866 10.2548C8.90324 11.4291 9.92603 12.8329 13.4168 12.8329H13.6703C19.0066 12.8329 19.7047 11.9106 19.9404 9.95788L20.6741 3.92886C20.7853 2.85803 20.6119 2.06166 20.0783 1.46325C19.3223 0.608391 17.8771 0.194458 15.6581 0.194458ZM16.4452 6.82639C16.4452 6.82639 16.3384 7.84322 16.3384 7.85672L16.0227 10.4258H15.9782C15.4819 10.5649 14.9678 10.6286 14.453 10.6148C13.8778 10.6709 13.3036 10.4982 12.8521 10.1334C12.7083 9.97693 12.5975 9.79256 12.5265 9.59146C12.4554 9.39035 12.4254 9.17672 12.4385 8.96354C12.4385 7.93771 13.0433 7.29431 14.2795 7.06035C15.5158 6.82639 16.503 6.71841 16.503 6.71841L16.4452 6.82639Z" fill="#F7F6F4"/>
<path d="M64.013 0.194458H63.6217C60.7934 0.194458 58.8724 1.02232 57.9163 2.64206C57.147 3.93336 56.7779 8.31115 56.7735 8.35614C56.6903 9.05053 56.7633 9.75496 56.9869 10.4168C57.7829 12.5585 60.5444 12.8509 62.132 12.8329C64.9824 12.8329 66.9079 12.0096 67.8462 10.4303C68.1353 9.94439 68.5577 8.5856 68.949 4.9007V4.77022C69.0413 4.10787 68.9944 3.43326 68.8112 2.79054C68.1975 0.734371 65.8629 0.248449 64.013 0.194458ZM64.6667 8.18517V8.24816C64.6318 8.84822 64.4038 9.42024 64.0174 9.8769C63.6428 10.2258 63.1525 10.42 62.6434 10.4213C62.2048 10.4748 61.7605 10.3949 61.3671 10.1918C61.1459 10.0511 60.9606 9.85969 60.8261 9.633C60.6917 9.4063 60.6119 9.15075 60.5933 8.88706C60.5667 8.54061 60.8735 6.39896 61.038 5.24714L61.1136 4.71623C61.1756 4.07401 61.4778 3.48006 61.9585 3.056C62.3412 2.75974 62.8108 2.60138 63.2926 2.60607C63.7025 2.58006 64.1109 2.6771 64.4666 2.88502C64.6702 3.0357 64.8351 3.2337 64.9473 3.46235C65.0596 3.69099 65.1158 3.94357 65.1114 4.19881C65.1114 4.42378 64.9691 5.81405 64.6667 8.18517Z" fill="#F7F6F4"/>
<path d="M56.4483 0.298714H54.754C54.2992 0.286359 53.8488 0.391903 53.4456 0.605314C53.0424 0.818726 52.6999 1.13291 52.4506 1.51802L48.1549 6.91715L48.2705 6.5977L49.0265 0.469686C49.0305 0.449424 49.0293 0.42846 49.0231 0.408777C49.0169 0.389094 49.0058 0.371344 48.9909 0.357205C48.9776 0.341748 48.9612 0.329338 48.9428 0.320804C48.9244 0.312269 48.9044 0.307806 48.8842 0.307713H45.3533C45.3053 0.309898 45.2594 0.328412 45.2231 0.360257C45.1868 0.392102 45.1622 0.435414 45.1532 0.483184L43.6769 12.4198C43.6733 12.4584 43.6844 12.4971 43.708 12.5277C43.7375 12.5502 43.7733 12.5628 43.8103 12.5637H45.6557C46.1092 12.5711 46.5571 12.4613 46.9571 12.2448C47.357 12.0283 47.6958 11.7122 47.9414 11.3264L52.1393 5.80583L52.0014 6.14777L51.2365 12.4018C51.2332 12.4418 51.2442 12.4818 51.2677 12.5142C51.2827 12.53 51.3006 12.5424 51.3205 12.5509C51.3404 12.5594 51.3617 12.5638 51.3833 12.5637H54.9097C54.9583 12.5613 55.0047 12.5422 55.0411 12.5094C55.0775 12.4767 55.1017 12.4324 55.1098 12.3838L56.5773 0.433692C56.5821 0.415584 56.5821 0.396519 56.5775 0.378374C56.5728 0.360229 56.5635 0.343629 56.5506 0.330209C56.5209 0.308484 56.4849 0.2974 56.4483 0.298714Z" fill="#F7F6F4"/>
<path d="M81.917 0.20049L78.3195 0.650418C78.2676 0.658206 78.2194 0.682417 78.1818 0.71959C78.1443 0.756762 78.1193 0.804993 78.1105 0.857384L77.5991 5.03721L77.5724 5.20818H74.135L74.7309 0.335469C74.7334 0.316269 74.7319 0.296753 74.7265 0.278162C74.7212 0.259571 74.7121 0.242312 74.6997 0.227486C74.6853 0.2164 74.6688 0.208308 74.6513 0.203676C74.6337 0.199043 74.6154 0.197961 74.5975 0.20049L70.9999 0.650418C70.948 0.658206 70.8998 0.682417 70.8622 0.71959C70.8247 0.756762 70.7997 0.804993 70.7909 0.857384L69.3946 12.3935C69.3926 12.4137 69.3947 12.4341 69.4009 12.4535C69.407 12.4728 69.417 12.4907 69.4302 12.506C69.4435 12.5215 69.4599 12.5339 69.4783 12.5424C69.4967 12.5509 69.5167 12.5554 69.5369 12.5555H73.0677C73.1178 12.5539 73.1657 12.5346 73.2031 12.5009C73.2405 12.4671 73.265 12.4212 73.2723 12.371L73.8415 7.75477V7.71878H77.2834L76.7097 12.3935C76.7077 12.4137 76.7099 12.4341 76.716 12.4535C76.7221 12.4728 76.7321 12.4907 76.7453 12.506C76.7586 12.5215 76.775 12.5339 76.7934 12.5424C76.8118 12.5509 76.8318 12.5554 76.852 12.5555H77.7414C79.369 12.5555 80.5652 12.3575 80.8187 10.4543L82.0682 0.335469C82.0726 0.316621 82.0725 0.296987 82.0678 0.278204C82.0632 0.25942 82.0542 0.242031 82.0416 0.227486C82.0249 0.212469 82.0047 0.202086 81.9828 0.197354C81.961 0.192622 81.9383 0.193703 81.917 0.20049Z" fill="#F7F6F4"/>
<path d="M43.7162 2.89541L44.0186 0.420804C44.0206 0.40059 44.0185 0.380178 44.0124 0.360831C44.0063 0.341483 43.9963 0.323612 43.9831 0.308323C43.9691 0.292522 43.9519 0.27993 43.9328 0.271393C43.9136 0.262856 43.8928 0.258573 43.8719 0.258831H30.4912C30.2472 0.271565 30.0176 0.379641 29.8509 0.560282L26.111 5.19903H25.5774L26.1777 0.330819C26.1816 0.312313 26.1807 0.29313 26.1753 0.275043C26.1698 0.256956 26.16 0.240548 26.1466 0.227336C26.1329 0.214731 26.1167 0.205364 26.099 0.199916C26.0813 0.194468 26.0626 0.193076 26.0443 0.195841L22.4468 0.645768C22.3948 0.653556 22.3467 0.677767 22.3091 0.71494C22.2716 0.752113 22.2466 0.800343 22.2378 0.852735L20.8193 12.3754C20.8151 12.3953 20.8157 12.4159 20.8212 12.4355C20.8266 12.4551 20.8366 12.473 20.8504 12.4879C20.8645 12.5034 20.8817 12.5159 20.9008 12.5244C20.92 12.5329 20.9406 12.5373 20.9616 12.5373H24.5191C24.5677 12.5349 24.6141 12.5158 24.6505 12.4831C24.6869 12.4503 24.7111 12.406 24.7192 12.3574L25.2928 7.70513H25.8442L28.4101 12.3619C28.4413 12.412 28.4837 12.454 28.5339 12.4845C28.5841 12.515 28.6407 12.5331 28.6991 12.5373H32.5279C32.5901 12.5373 32.6524 12.5059 32.599 12.3979L29.0949 6.48583L32.0032 3.07987H36.2055L35.0626 12.3754C35.0584 12.3953 35.0591 12.4159 35.0645 12.4355C35.0699 12.4551 35.08 12.473 35.0937 12.4879C35.1079 12.5034 35.1251 12.5159 35.1442 12.5244C35.1633 12.5329 35.184 12.5373 35.2049 12.5373H38.7357C38.7849 12.5367 38.8322 12.5181 38.8689 12.4851C38.9057 12.452 38.9294 12.4067 38.9358 12.3574L40.0609 3.07987H43.5117C43.5618 3.0783 43.6097 3.05896 43.6471 3.02524C43.6845 2.99151 43.709 2.94555 43.7162 2.89541Z" fill="#F7F6F4"/>
<path d="M90.9294 6.45577L87.652 0.606715C87.5952 0.515492 87.5174 0.439582 87.4252 0.385506C87.3331 0.33143 87.2293 0.300806 87.1228 0.296265H84.1968C83.9922 0.296265 83.8899 0.431243 83.9878 0.597716L87.2785 6.44677L82.5203 12.2958C82.3913 12.4398 82.4536 12.5613 82.6626 12.5613H86.0378C86.2696 12.5508 86.4883 12.4491 86.647 12.2778L90.8671 7.09467C90.9407 7.00732 90.9861 6.89929 90.9972 6.78509C91.0083 6.67089 90.9847 6.55597 90.9294 6.45577Z" fill="#F7F6F4"/>
<path d="M8.34184 0.296265H4.96665C4.73324 0.305545 4.51281 0.407362 4.35298 0.579719L0.137338 5.76288C0.0608702 5.8514 0.0137403 5.96194 0.00257347 6.07896C-0.0085934 6.19598 0.0167642 6.31359 0.0750819 6.41528L3.35243 12.2643C3.40773 12.3569 3.48521 12.4339 3.57771 12.4882C3.6702 12.5424 3.77472 12.5722 3.88161 12.5748H6.80322C7.01222 12.5748 7.1145 12.4398 7.01222 12.2733L3.72597 6.42428L8.48414 0.57522C8.60865 0.413246 8.5464 0.296265 8.34184 0.296265Z" fill="#F7F6F4"/>
</svg>
