<svg width="100" height="14" viewBox="0 0 100 14" fill="none" xmlns="http://www.w3.org/2000/svg">
<path d="M17.3466 0C15.4689 0.00103001 13.6061 0.338485 11.8447 0.996737C11.7918 1.02125 11.7478 1.06173 11.7187 1.11261C11.6896 1.16349 11.6768 1.22226 11.6821 1.28081L11.9776 3.27428C11.9867 3.31808 12.0112 3.35705 12.0466 3.38392C12.0666 3.39364 12.0885 3.39869 12.1106 3.39869C12.1328 3.39869 12.1547 3.39364 12.1747 3.38392C12.9855 3.14952 13.8075 2.95657 14.6375 2.80581C16.6078 2.46692 17.7013 2.55663 18.2529 3.0849C18.4125 3.25465 18.5273 3.46233 18.5867 3.68878C18.6461 3.91523 18.6482 4.15317 18.5928 4.38066L18.5435 4.75942C18.5435 4.75942 16.1546 5.08336 14.603 5.37739C13.4388 5.53222 12.3159 5.91657 11.2979 6.50869C9.6823 7.5752 9.28332 9.65838 9.59363 11.1435C9.86455 12.4443 10.9974 13.9992 14.8641 13.9992H15.1448C21.0556 13.9992 21.8289 12.9775 22.09 10.8146L22.9027 4.13646C23.0259 2.95034 22.8338 2.06823 22.2427 1.4054C21.4053 0.458499 19.8045 0 17.3466 0ZM18.2185 7.34595C18.2185 7.34595 18.1002 8.47226 18.1002 8.48721L17.7505 11.3329H17.7013C17.1514 11.487 16.5821 11.5575 16.0118 11.5422C15.3746 11.6044 14.7387 11.4131 14.2385 11.009C14.0793 10.8357 13.9566 10.6315 13.8778 10.4087C13.7991 10.186 13.766 9.94932 13.7804 9.7132C13.7804 8.57692 14.4503 7.86425 15.8197 7.6051C17.189 7.34595 18.2825 7.22634 18.2825 7.22634L18.2185 7.34595Z" fill="#FF6854"/>
<path d="M70.9076 0H70.4742C67.3414 0 65.2136 0.916998 64.1545 2.71112C63.3024 4.14144 62.8936 8.99057 62.8887 9.0404C62.7965 9.80955 62.8774 10.5898 63.1251 11.3229C64.0068 13.6952 67.0656 14.0191 68.8241 13.9992C71.9814 13.9992 74.1142 13.0872 75.1535 11.3379C75.4737 10.7996 75.9416 9.29457 76.3751 5.21293V5.06841C76.4773 4.33474 76.4253 3.5875 76.2224 2.87559C75.5427 0.598042 72.9567 0.0598042 70.9076 0ZM71.6317 8.85102V8.9208C71.593 9.58546 71.3405 10.2191 70.9125 10.7249C70.4975 11.1113 69.9545 11.3265 69.3905 11.3279C68.9048 11.3871 68.4127 11.2987 67.9768 11.0737C67.7318 10.9179 67.5265 10.7058 67.3776 10.4547C67.2287 10.2036 67.1404 9.92057 67.1198 9.62848C67.0902 9.24473 67.4301 6.8725 67.6124 5.59668L67.6961 5.0086C67.7647 4.29724 68.0995 3.63934 68.632 3.16962C69.0558 2.84147 69.576 2.66606 70.1097 2.67125C70.5637 2.64245 71.0161 2.74994 71.41 2.98024C71.6356 3.14714 71.8183 3.36646 71.9426 3.61972C72.0669 3.87298 72.1292 4.15276 72.1243 4.43548C72.1243 4.68466 71.9666 6.22462 71.6317 8.85102Z" fill="#FF6854"/>
<path d="M62.5285 0.115481H60.6518C60.148 0.101795 59.6491 0.218702 59.2025 0.455091C58.7559 0.691479 58.3765 1.03949 58.1003 1.46606L53.3421 7.44648L53.4702 7.09264L54.3076 0.304861C54.312 0.282417 54.3107 0.259195 54.3038 0.237394C54.2969 0.215592 54.2847 0.19593 54.2682 0.180268C54.2534 0.163148 54.2353 0.149402 54.2149 0.139948C54.1945 0.130495 54.1724 0.125551 54.15 0.125448H50.239C50.1858 0.127869 50.135 0.148376 50.0948 0.183649C50.0545 0.218923 50.0273 0.266898 50.0173 0.319812L48.382 13.5415C48.3781 13.5844 48.3904 13.6271 48.4165 13.6611C48.4492 13.686 48.4888 13.7 48.5298 13.701H50.5739C51.0763 13.7091 51.5724 13.5876 52.0154 13.3478C52.4584 13.1079 52.8336 12.7578 53.1057 12.3305L57.7555 6.21551L57.6028 6.59427L56.7556 13.5216C56.7519 13.566 56.7641 13.6102 56.7901 13.6462C56.8067 13.6636 56.8266 13.6774 56.8486 13.6868C56.8706 13.6962 56.8943 13.7011 56.9182 13.701H60.8242C60.8781 13.6983 60.9294 13.6771 60.9698 13.6409C61.0101 13.6046 61.0369 13.5555 61.0459 13.5017L62.6713 0.264991C62.6767 0.244933 62.6767 0.223816 62.6716 0.203717C62.6664 0.183618 62.6561 0.165231 62.6418 0.150366C62.6089 0.126303 62.569 0.114026 62.5285 0.115481Z" fill="#FF6854"/>
<path d="M90.7393 0.00668197L86.7544 0.50505C86.6969 0.513676 86.6435 0.540495 86.6019 0.581669C86.5603 0.622844 86.5327 0.676268 86.5229 0.7343L85.9565 5.36414L85.9269 5.55352H82.1194L82.7794 0.156192C82.7822 0.134926 82.7806 0.113308 82.7746 0.0927156C82.7687 0.0721229 82.7586 0.0530066 82.7449 0.036584C82.7289 0.024304 82.7107 0.0153415 82.6912 0.0102103C82.6718 0.00507915 82.6516 0.00388011 82.6317 0.00668197L78.6468 0.50505C78.5892 0.513676 78.5359 0.540495 78.4943 0.581669C78.4527 0.622844 78.425 0.676268 78.4153 0.7343L76.8686 13.5125C76.8664 13.5349 76.8688 13.5575 76.8756 13.5789C76.8823 13.6003 76.8934 13.6201 76.908 13.6371C76.9228 13.6542 76.9409 13.6679 76.9613 13.6774C76.9817 13.6868 77.0038 13.6918 77.0263 13.6919H80.9372C80.9927 13.6901 81.0458 13.6687 81.0872 13.6314C81.1286 13.594 81.1557 13.5431 81.1638 13.4875L81.7943 8.37429V8.33442H85.6068L84.9713 13.5125C84.9691 13.5349 84.9715 13.5575 84.9783 13.5789C84.9851 13.6003 84.9961 13.6201 85.0108 13.6371C85.0255 13.6542 85.0436 13.6679 85.064 13.6774C85.0844 13.6868 85.1065 13.6918 85.129 13.6919H86.1141C87.9169 13.6919 89.2419 13.4726 89.5227 11.3645L90.9068 0.156192C90.9116 0.135316 90.9115 0.113568 90.9063 0.0927621C90.9012 0.0719563 90.8912 0.0526952 90.8772 0.036584C90.8587 0.0199498 90.8363 0.00844952 90.8122 0.00320814C90.788 -0.00203324 90.7629 -0.000836244 90.7393 0.00668197Z" fill="#FF6854"/>
<path d="M48.4256 2.99174L48.7606 0.250716C48.7628 0.228325 48.7604 0.205716 48.7537 0.184285C48.7469 0.162854 48.7358 0.143059 48.7212 0.126124C48.7057 0.108622 48.6867 0.0946742 48.6655 0.0852184C48.6442 0.0757625 48.6212 0.0710177 48.598 0.0713031H33.7768C33.5065 0.0854084 33.2522 0.20512 33.0675 0.40521L28.925 5.54339H28.3339L28.9989 0.151042C29.0031 0.130544 29.0022 0.109295 28.9962 0.0892609C28.9901 0.0692264 28.9792 0.051052 28.9644 0.0364174C28.9493 0.0224553 28.9312 0.0120802 28.9116 0.00604588C28.8921 1.15232e-05 28.8714 -0.0015306 28.8511 0.00153154L24.8663 0.4999C24.8087 0.508526 24.7553 0.535344 24.7137 0.576519C24.6722 0.617694 24.6445 0.671117 24.6348 0.729149L23.0635 13.4924C23.0589 13.5144 23.0596 13.5373 23.0656 13.5589C23.0716 13.5806 23.0827 13.6005 23.098 13.617C23.1136 13.6342 23.1327 13.648 23.1538 13.6574C23.175 13.6669 23.1979 13.6717 23.2211 13.6718H27.1616C27.2155 13.6691 27.2669 13.6479 27.3072 13.6116C27.3475 13.5754 27.3743 13.5263 27.3833 13.4724L28.0187 8.3193H28.6295L31.4716 13.4774C31.5061 13.5329 31.5531 13.5795 31.6087 13.6132C31.6644 13.647 31.727 13.667 31.7917 13.6718H36.0327C36.1017 13.6718 36.1706 13.6369 36.1115 13.5173L32.2301 6.96872L35.4515 3.19607H40.1062L38.8403 13.4924C38.8357 13.5144 38.8364 13.5373 38.8424 13.5589C38.8484 13.5806 38.8596 13.6005 38.8748 13.617C38.8905 13.6342 38.9095 13.648 38.9307 13.6574C38.9519 13.6669 38.9748 13.6717 38.998 13.6718H42.9089C42.9634 13.671 43.0158 13.6505 43.0565 13.6139C43.0972 13.5773 43.1235 13.5271 43.1306 13.4724L44.3768 3.19607H48.1991C48.2545 3.19433 48.3076 3.17291 48.349 3.13555C48.3905 3.09819 48.4176 3.04729 48.4256 2.99174Z" fill="#FF6854"/>
<path d="M99.721 6.93546L96.0908 0.456667C96.0279 0.355624 95.9417 0.271541 95.8396 0.211643C95.7375 0.151745 95.6225 0.117823 95.5046 0.112793H92.2635C92.0369 0.112793 91.9236 0.262304 92.032 0.4467L95.677 6.92549L90.4065 13.4043C90.2637 13.5638 90.3327 13.6983 90.5642 13.6983H94.3027C94.5596 13.6867 94.8017 13.5741 94.9776 13.3843L99.652 7.64314C99.7335 7.54639 99.7838 7.42673 99.7961 7.30023C99.8084 7.17373 99.7822 7.04645 99.721 6.93546Z" fill="#FF6854"/>
<path d="M9.23995 0.112793H5.50138C5.24284 0.123073 4.99868 0.235852 4.82164 0.426765L0.152125 6.16797C0.0674237 6.26602 0.0152197 6.38846 0.00285054 6.51807C-0.0095186 6.64769 0.0185691 6.77797 0.0831655 6.89061L3.71337 13.3694C3.77462 13.4719 3.86044 13.5572 3.9629 13.6173C4.06535 13.6774 4.18113 13.7104 4.29952 13.7133H7.53568C7.76718 13.7133 7.88047 13.5638 7.76718 13.3794L4.12712 6.90057L9.39757 0.421781C9.53549 0.242369 9.46653 0.112793 9.23995 0.112793Z" fill="#FF6854"/>
</svg>
