<svg width="129" height="18" viewBox="0 0 129 18" fill="none" xmlns="http://www.w3.org/2000/svg">
<path d="M22.0933 0C19.7014 0.00131206 17.3286 0.431172 15.0848 1.26967C15.0175 1.30089 14.9615 1.35246 14.9244 1.41728C14.8873 1.48209 14.871 1.55695 14.8777 1.63153L15.2542 4.17086C15.2658 4.22666 15.297 4.2763 15.342 4.31053C15.3675 4.32291 15.3954 4.32934 15.4236 4.32934C15.4518 4.32934 15.4797 4.32291 15.5052 4.31053C16.538 4.01194 17.5851 3.76616 18.6424 3.57412C21.1522 3.14243 22.5451 3.2567 23.2478 3.92963C23.4511 4.14586 23.5974 4.4104 23.673 4.69886C23.7487 4.98733 23.7513 5.29042 23.6808 5.5802L23.618 6.06267C23.618 6.06267 20.5749 6.47531 18.5985 6.84987C17.1155 7.04709 15.6851 7.53668 14.3883 8.29094C12.3303 9.64949 11.8221 12.3031 12.2174 14.1949C12.5625 15.8518 14.0056 17.8325 18.931 17.8325H19.2887C26.818 17.8325 27.803 16.5311 28.1356 13.7759L29.1709 5.26913C29.3277 3.75822 29.083 2.63456 28.3301 1.79023C27.2634 0.584048 25.2243 0 22.0933 0ZM23.2039 9.35746C23.2039 9.35746 23.0533 10.7922 23.0533 10.8112L22.6078 14.4361H22.5451C21.8447 14.6324 21.1194 14.7223 20.393 14.7028C19.5814 14.7819 18.7712 14.5383 18.1342 14.0235C17.9314 13.8028 17.775 13.5427 17.6747 13.2589C17.5744 12.9751 17.5322 12.6737 17.5506 12.3729C17.5506 10.9255 18.404 10.0177 20.1483 9.68758C21.8925 9.35746 23.2855 9.2051 23.2855 9.2051L23.2039 9.35746Z" fill="#F7F6F4"/>
<path d="M90.3208 0H89.7686C85.7781 0 83.0675 1.1681 81.7185 3.4535C80.633 5.27548 80.1123 11.4524 80.106 11.5159C79.9886 12.4957 80.0916 13.4896 80.4072 14.4234C81.5303 17.4453 85.4267 17.8579 87.6667 17.8325C91.6886 17.8325 94.4054 16.6708 95.7293 14.4425C96.1372 13.7569 96.7332 11.8397 97.2854 6.64037V6.45627C97.4156 5.52171 97.3493 4.56985 97.0909 3.663C96.225 0.761802 92.9309 0.0761802 90.3208 0ZM91.2431 11.2747V11.3635C91.1938 12.2102 90.8721 13.0173 90.327 13.6616C89.7984 14.1539 89.1067 14.428 88.3882 14.4298C87.7695 14.5052 87.1426 14.3925 86.5875 14.106C86.2754 13.9075 86.0139 13.6374 85.8242 13.3175C85.6345 12.9977 85.522 12.6371 85.4957 12.265C85.4581 11.7762 85.891 8.75437 86.1232 7.1292L86.2298 6.38009C86.3172 5.47394 86.7437 4.63589 87.422 4.03755C87.9619 3.61954 88.6245 3.3961 89.3043 3.40271C89.8827 3.36602 90.459 3.50294 90.9608 3.79631C91.2481 4.00891 91.4808 4.28829 91.6391 4.6109C91.7975 4.9335 91.8768 5.28989 91.8705 5.65003C91.8705 5.96745 91.6698 7.92909 91.2431 11.2747Z" fill="#F7F6F4"/>
<path d="M79.6472 0.147102H77.2566C76.6149 0.129669 75.9793 0.278589 75.4105 0.579707C74.8416 0.880825 74.3583 1.32414 74.0065 1.8675L67.9454 9.48552L68.1085 9.03479L69.1752 0.388339C69.1808 0.35975 69.1792 0.33017 69.1704 0.302398C69.1616 0.274626 69.146 0.249581 69.125 0.229631C69.1062 0.207822 69.0831 0.190312 69.0571 0.17827C69.0312 0.166228 69.003 0.15993 68.9744 0.159799H63.9925C63.9248 0.162883 63.86 0.189005 63.8088 0.233937C63.7576 0.27887 63.7228 0.339982 63.7102 0.407385L61.627 17.2496C61.622 17.3041 61.6377 17.3586 61.671 17.4019C61.7127 17.4336 61.7631 17.4514 61.8153 17.4527H64.4192C65.0591 17.4631 65.691 17.3082 66.2553 17.0027C66.8196 16.6972 67.2976 16.2513 67.6442 15.7069L73.5673 7.91748L73.3728 8.39996L72.2936 17.2242C72.2888 17.2807 72.3044 17.3371 72.3375 17.3829C72.3586 17.405 72.384 17.4226 72.412 17.4346C72.44 17.4466 72.4702 17.4528 72.5006 17.4527H77.4762C77.5449 17.4493 77.6103 17.4223 77.6617 17.3761C77.713 17.3299 77.7472 17.2673 77.7586 17.1988L79.8292 0.337553C79.836 0.312003 79.8361 0.285102 79.8295 0.2595C79.8228 0.233898 79.8098 0.210476 79.7915 0.191541C79.7496 0.160888 79.6988 0.145249 79.6472 0.147102Z" fill="#F7F6F4"/>
<path d="M115.583 0.00851167L110.507 0.643346C110.434 0.654335 110.366 0.688496 110.313 0.740946C110.26 0.793396 110.224 0.861447 110.212 0.93537L109.49 6.83298L109.453 7.07422H104.603L105.443 0.198962C105.447 0.171873 105.445 0.144335 105.437 0.118104C105.43 0.0918721 105.417 0.0675212 105.399 0.0466017C105.379 0.030959 105.356 0.0195424 105.331 0.0130062C105.306 0.00646995 105.281 0.00494259 105.255 0.00851167L100.179 0.643346C100.106 0.654335 100.038 0.688496 99.9849 0.740946C99.9319 0.793396 99.8967 0.861447 99.8842 0.93537L97.9141 17.2125C97.9113 17.2411 97.9143 17.2699 97.9229 17.2972C97.9315 17.3245 97.9456 17.3497 97.9643 17.3712C97.983 17.393 98.0061 17.4106 98.0321 17.4226C98.0581 17.4346 98.0863 17.4409 98.1149 17.4411H103.097C103.167 17.4389 103.235 17.4116 103.288 17.364C103.341 17.3164 103.375 17.2515 103.385 17.1808L104.188 10.6674V10.6166H109.045L108.236 17.2125C108.233 17.2411 108.236 17.2699 108.244 17.2972C108.253 17.3245 108.267 17.3497 108.286 17.3712C108.304 17.393 108.328 17.4106 108.354 17.4226C108.38 17.4346 108.408 17.4409 108.436 17.4411H109.691C111.988 17.4411 113.675 17.1617 114.033 14.4764L115.796 0.198962C115.802 0.172368 115.802 0.144666 115.796 0.118163C115.789 0.0916599 115.776 0.0671245 115.759 0.0466017C115.735 0.0254126 115.706 0.0107632 115.676 0.00408661C115.645 -0.00259 115.613 -0.00106523 115.583 0.00851167Z" fill="#F7F6F4"/>
<path d="M61.6826 3.81096L62.1093 0.319368C62.1121 0.290847 62.1091 0.262046 62.1005 0.234747C62.0918 0.207448 62.0777 0.182232 62.0591 0.16066C62.0394 0.138365 62.0152 0.120599 61.9881 0.108553C61.9611 0.0965083 61.9318 0.0904643 61.9022 0.0908278H43.0225C42.6782 0.108795 42.3543 0.261288 42.119 0.516167L36.8422 7.06131H36.0893L36.9363 0.192401C36.9417 0.16629 36.9405 0.139223 36.9328 0.113703C36.9252 0.0881824 36.9112 0.0650314 36.8924 0.0463894C36.8731 0.0286042 36.8501 0.0153881 36.8252 0.0077014C36.8002 1.46786e-05 36.7739 -0.00194972 36.7481 0.00195091L31.6721 0.636786C31.5987 0.647774 31.5307 0.681936 31.4778 0.734385C31.4248 0.786835 31.3896 0.854887 31.3772 0.92881L29.3756 17.1869C29.3697 17.215 29.3707 17.2441 29.3783 17.2717C29.386 17.2994 29.4001 17.3247 29.4195 17.3456C29.4395 17.3676 29.4637 17.3852 29.4907 17.3972C29.5177 17.4092 29.5469 17.4154 29.5764 17.4155H34.5959C34.6646 17.4121 34.73 17.3851 34.7814 17.3389C34.8327 17.2927 34.8669 17.2301 34.8783 17.1615L35.6877 10.5973H36.4657L40.0861 17.1679C40.1301 17.2386 40.19 17.2979 40.2608 17.3409C40.3317 17.3839 40.4115 17.4094 40.4939 17.4155H45.8962C45.984 17.4155 46.0719 17.371 45.9966 17.2187L41.0523 8.87694L45.1558 4.07124H51.0851L49.4726 17.1869C49.4667 17.215 49.4676 17.2441 49.4753 17.2717C49.4829 17.2994 49.4971 17.3247 49.5165 17.3456C49.5365 17.3676 49.5607 17.3852 49.5877 17.3972C49.6147 17.4092 49.6439 17.4154 49.6734 17.4155H54.6553C54.7246 17.4145 54.7914 17.3884 54.8432 17.3417C54.8951 17.2951 54.9286 17.2311 54.9376 17.1615L56.5251 4.07124H61.394C61.4647 4.06902 61.5323 4.04173 61.585 3.99415C61.6378 3.94656 61.6724 3.88172 61.6826 3.81096Z" fill="#F7F6F4"/>
<path d="M128.299 8.83469L123.675 0.581835C123.595 0.453123 123.485 0.346016 123.355 0.269716C123.225 0.193417 123.078 0.150207 122.928 0.143799H118.799C118.511 0.143799 118.366 0.334249 118.505 0.569138L123.148 8.82199L116.434 17.0748C116.252 17.278 116.34 17.4494 116.635 17.4494H121.397C121.724 17.4347 122.033 17.2911 122.257 17.0495L128.211 9.73615C128.315 9.61291 128.379 9.46049 128.395 9.29935C128.41 9.13821 128.377 8.97607 128.299 8.83469Z" fill="#F7F6F4"/>
<path d="M11.7701 0.143799H7.00781C6.67847 0.156893 6.36745 0.300555 6.14194 0.543745L0.19378 7.85704C0.0858861 7.98194 0.0193872 8.1379 0.00363109 8.30301C-0.012125 8.46812 0.0236538 8.63408 0.105938 8.77755L4.73019 17.0304C4.80821 17.161 4.91753 17.2697 5.04804 17.3462C5.17855 17.4228 5.32603 17.4648 5.47685 17.4684H9.59914C9.89404 17.4684 10.0384 17.278 9.89404 17.0431L5.25724 8.79025L11.9709 0.537396C12.1466 0.308856 12.0587 0.143799 11.7701 0.143799Z" fill="#F7F6F4"/>
</svg>
