<svg width="20" height="24" viewBox="0 0 20 24" fill="none" xmlns="http://www.w3.org/2000/svg">
<path d="M6.66863 12.4985C4.35855 13.2686 2.97207 14.3464 2.01683 15.9784C1.52172 16.8242 1.37219 17.817 1.37219 18.7971V19.1995C1.37219 20.6118 2.39246 21.8258 3.79462 21.9942C7.9576 22.4941 12.1206 22.4941 16.2835 21.9942C17.6857 21.8258 18.706 20.6118 18.706 19.1995V18.7971C18.706 17.817 18.5564 16.8242 18.0613 15.9784C17.1061 14.3464 15.7196 13.2686 13.4095 12.4985" stroke="white" stroke-width="1.92598" stroke-linecap="round"/>
<path d="M5.40881 6.23545C5.30778 3.60865 7.40995 1.42407 10.0387 1.42407V1.42407C12.6674 1.42407 14.7696 3.60865 14.6686 6.23546L14.5387 9.61267C14.4457 12.0307 12.4585 13.9429 10.0387 13.9429V13.9429C7.61892 13.9429 5.6317 12.0307 5.5387 9.61267L5.40881 6.23545Z" stroke="white" stroke-width="1.92598"/>
<path d="M5.22375 6.23931C7.63122 7.68379 13.8906 6.7208 13.8906 3.35034" stroke="white" stroke-width="1.92598"/>
</svg>
