<svg width="14" height="16" viewBox="0 0 14 16" fill="none" xmlns="http://www.w3.org/2000/svg">
<path d="M4.99906 8.50854C3.41462 9.03669 2.46366 9.77599 1.80848 10.8953C1.46889 11.4754 1.36633 12.1564 1.36633 12.8286V13.1046C1.36633 14.0733 2.06611 14.9059 3.02783 15.0214C5.88313 15.3643 8.73844 15.3643 11.5937 15.0214C12.5555 14.9059 13.2552 14.0733 13.2552 13.1046V12.8286C13.2552 12.1564 13.1527 11.4754 12.8131 10.8953C12.1579 9.77599 11.207 9.03669 9.62252 8.50854" stroke="white" stroke-width="1.32099" stroke-linecap="round"/>
<path d="M4.1323 4.21336C4.063 2.41169 5.50484 0.91333 7.30785 0.91333V0.91333C9.11085 0.91333 10.5527 2.41169 10.4834 4.21337L10.3943 6.52973C10.3305 8.18818 8.96752 9.49976 7.30785 9.49976V9.49976C5.64817 9.49976 4.28517 8.18818 4.22139 6.52973L4.1323 4.21336Z" stroke="white" stroke-width="1.32099"/>
<path d="M4.00537 4.21586C5.65661 5.2066 9.94983 4.54611 9.94983 2.23438" stroke="white" stroke-width="1.32099"/>
</svg>
