<svg width="32" height="32" viewBox="0 0 32 32" fill="none" xmlns="http://www.w3.org/2000/svg">
<path d="M12.6686 16.4985C10.3586 17.2686 8.97207 18.3464 8.01683 19.9784C7.52172 20.8242 7.37219 21.817 7.37219 22.7971V23.1995C7.37219 24.6118 8.39246 25.8258 9.79462 25.9942C13.9576 26.4941 18.1206 26.4941 22.2835 25.9942C23.6857 25.8258 24.706 24.6118 24.706 23.1995V22.7971C24.706 21.817 24.5564 20.8242 24.0613 19.9784C23.1061 18.3464 21.7196 17.2686 19.4095 16.4985" stroke="white" stroke-width="1.92598" stroke-linecap="round"/>
<path d="M11.4088 10.2355C11.3078 7.60865 13.4099 5.42407 16.0387 5.42407V5.42407C18.6674 5.42407 20.7696 7.60865 20.6686 10.2355L20.5387 13.6127C20.4457 16.0307 18.4585 17.9429 16.0387 17.9429V17.9429C13.6189 17.9429 11.6317 16.0307 11.5387 13.6127L11.4088 10.2355Z" stroke="white" stroke-width="1.92598"/>
<path d="M11.2238 10.2393C13.6312 11.6838 19.8906 10.7208 19.8906 7.35034" stroke="white" stroke-width="1.92598"/>
</svg>
