<svg width="48" height="48" viewBox="0 0 48 48" fill="none" xmlns="http://www.w3.org/2000/svg">
<rect width="48" height="48" rx="24" fill="#FFE9E6"/>
<path d="M16.213 21.7207V15.5039C16.213 14.9404 16.6715 14.4816 17.2351 14.4816H19.1232C19.6014 14.4816 19.989 14.094 19.989 13.6158C19.989 13.1376 19.6014 12.75 19.1232 12.75H17.2351C15.7167 12.75 14.4811 13.9855 14.4811 15.5039V21.721C14.4811 21.742 14.4731 21.7614 14.4583 21.7762L13.1137 23.1208C12.6288 23.6058 12.6288 24.3945 13.1137 24.8792L14.4583 26.2238C14.4731 26.2386 14.4811 26.2583 14.4811 26.279V32.4961C14.4811 34.0145 15.7167 35.25 17.2351 35.25H19.1232C19.6014 35.25 19.989 34.8624 19.989 34.3842C19.989 33.906 19.6014 33.5184 19.1232 33.5184H17.2351C16.6715 33.5184 16.213 33.0599 16.213 32.4964V26.279C16.213 25.7955 16.0248 25.3411 15.6828 24.9991L14.6836 23.9998L15.6828 23.0006C16.0248 22.6586 16.213 22.2042 16.213 21.7207Z" fill="#F1361D"/>
<path d="M34.8853 23.1205L33.5407 21.7759C33.5259 21.7611 33.5178 21.7417 33.5178 21.7207V15.5039C33.5178 13.9855 32.2823 12.75 30.7639 12.75H28.8758C28.3976 12.75 28.01 13.1376 28.01 13.6158C28.01 14.094 28.3976 14.4816 28.8758 14.4816H30.7639C31.3275 14.4816 31.7863 14.9401 31.7863 15.5039V21.721C31.7863 22.2045 31.9745 22.6589 32.3162 23.0006L33.3157 23.9998L32.3165 24.9991C31.9745 25.3411 31.7866 25.7955 31.7866 26.279V32.4961C31.7866 33.0596 31.3281 33.5181 30.7642 33.5181H28.8761C28.3979 33.5181 28.0103 33.9057 28.0103 34.3839C28.0103 34.8621 28.3979 35.2497 28.8761 35.2497H30.7642C32.2826 35.2497 33.5182 34.0142 33.5182 32.4958V26.279C33.5182 26.258 33.5262 26.2383 33.541 26.2238L34.8856 24.8792C35.3702 24.3942 35.3702 23.6055 34.8853 23.1205Z" fill="#F1361D"/>
<path d="M24.1177 17.6462C23.1385 17.6462 22.3667 18.4184 22.3667 19.4164C22.3667 20.3955 23.1388 21.1677 24.1177 21.1677C25.116 21.1677 25.8878 20.3955 25.8878 19.4164C25.8878 18.4184 25.1157 17.6462 24.1177 17.6462Z" fill="#F1361D"/>
<path d="M22.5912 25.8882V28.7694H23.966V29.0707C23.966 29.918 23.6271 30.1254 22.9868 30.1254V31.3492C26.0938 31.3492 26.2824 28.2046 25.2465 25.8882H22.5912Z" fill="#F1361D"/>
</svg>
